<svg width="21" height="20" viewBox="0 0 21 20" fill="none" xmlns="http://www.w3.org/2000/svg">
<g id="ic_google">
<path id="Vector" d="M6.5 11.7273L5.87175 13.9539L3.57549 14C2.88925 12.7916 2.5 11.4091 2.5 9.94C2.5 8.51934 2.86394 7.17964 3.50904 6H3.50954L5.55385 6.35581L6.44938 8.28491C6.26195 8.80366 6.15979 9.36054 6.15979 9.94C6.15986 10.5689 6.27985 11.1714 6.5 11.7273Z" fill="#FBBB00"/>
<path id="Vector_2" d="M18.3571 9C18.451 9.43806 18.5 9.89045 18.5 10.3528C18.5 10.8713 18.4384 11.377 18.3211 11.8648C17.9229 13.5248 16.8825 14.9743 15.4411 16L15.4407 15.9996L13.1067 15.8942L12.7764 14.0687C13.7328 13.5721 14.4803 12.795 14.874 11.8648H10.5V9H14.9378H18.3571Z" fill="#518EF8"/>
<path id="Vector_3" d="M15.4996 16.3304L15.5 16.3308C14.1353 17.3751 12.4017 18 10.5145 18C7.48177 18 4.84506 16.3862 3.5 14.0112L6.08072 12C6.75323 13.7088 8.48465 14.9252 10.5145 14.9252C11.387 14.9252 12.2043 14.7007 12.9057 14.3087L15.4996 16.3304Z" fill="#28B446"/>
<path id="Vector_4" d="M15.5 3.71206L12.9533 5.68441C12.2367 5.26069 11.3897 5.01592 10.4822 5.01592C8.43312 5.01592 6.69199 6.2638 6.06137 8L3.50043 6.01662H3.5C4.80834 3.63035 7.44399 2 10.4822 2C12.3896 2 14.1385 2.64275 15.5 3.71206Z" fill="#F14336"/>
</g>
</svg>
