<svg width="18" height="19" viewBox="0 0 18 19" fill="none" xmlns="http://www.w3.org/2000/svg">
<g clip-path="url(#clip0_1728_1136)">
<path d="M2.74512 15.3903V16.0647C2.74512 17.4097 3.83545 18.5 5.18046 18.5C6.52547 18.5 7.6158 17.4097 7.6158 16.0647V15.3903H2.74512Z" fill="black"/>
<path d="M7.64444 7.53432H7.61498V6.82072C7.61498 5.47571 6.52464 4.38538 5.17964 4.38538C3.83463 4.38538 2.74429 5.47571 2.74429 6.82072V7.5358C2.43263 7.55123 2.18457 7.80805 2.18457 8.1235C2.18457 8.40669 2.38443 8.64301 2.65071 8.69961H7.73286V8.70534C8.01622 8.66259 8.23366 8.41878 8.23366 8.1235C8.23366 7.79813 7.96985 7.53432 7.64444 7.53432Z" fill="black"/>
<path d="M7.64444 13.387H7.61498V9.5376H2.74429V13.3885C2.43263 13.4039 2.18457 13.6608 2.18457 13.9762C2.18457 14.2594 2.38443 14.4957 2.65071 14.5523H7.73286V14.5581C8.01622 14.5153 8.23366 14.2715 8.23366 13.9762C8.23366 13.6508 7.96985 13.387 7.64444 13.387Z" fill="black"/>
<path d="M10.3262 15.3903V16.0647C10.3262 17.4097 11.4165 18.5 12.7615 18.5C14.1065 18.5 15.1969 17.4097 15.1969 16.0647V15.3903H10.3262Z" fill="black"/>
<path d="M15.2255 7.53438H15.196V6.82078C15.196 5.47577 14.1057 4.38544 12.7607 4.38544C11.4157 4.38544 10.3253 5.47577 10.3253 6.82078V7.53586C10.0138 7.55133 9.76562 7.80811 9.76562 8.12357C9.76562 8.40675 9.96549 8.64307 10.2318 8.69967H15.3139V8.7054C15.5973 8.66265 15.8147 8.41881 15.8147 8.12357C15.8147 7.7982 15.5509 7.53438 15.2255 7.53438Z" fill="black"/>
<path d="M15.2255 13.387H15.196V9.5376H10.3253V13.3885C10.0138 13.404 9.76562 13.6608 9.76562 13.9762C9.76562 14.2594 9.96549 14.4957 10.2318 14.5523H15.3139V14.5581C15.5973 14.5153 15.8147 14.2715 15.8147 13.9762C15.8147 13.6508 15.5509 13.387 15.2255 13.387Z" fill="black"/>
<path d="M11.6419 0.5H6.29981C5.81166 0.5 5.41602 0.895719 5.41602 1.38379V2.71931C5.41605 3.20738 5.81173 3.6031 6.29984 3.6031H7.37608C7.42077 3.35581 7.47529 3.10065 7.54177 2.85789C7.64591 2.47761 7.76477 2.17945 7.90511 1.94629C8.26149 1.35433 8.7258 1.26595 8.97084 1.26595C9.21591 1.26595 9.68019 1.35433 10.0366 1.94629C10.1769 2.17941 10.2958 2.47757 10.3999 2.85789C10.4664 3.10065 10.5209 3.35581 10.5656 3.6031H11.6419C12.1299 3.6031 12.5257 3.20738 12.5257 2.71931V1.38379C12.5257 0.895719 12.1299 0.5 11.6419 0.5Z" fill="black"/>
<path d="M9.9176 4.61953C9.83854 3.89907 9.57669 2.05157 8.97032 2.05157C8.36394 2.05157 8.1021 3.89911 8.02303 4.61953C8.00648 4.77066 8.12474 4.90246 8.2763 4.90246H9.66434C9.81484 4.90246 9.9342 4.77105 9.9176 4.61953Z" fill="black"/>
</g>
<defs>
<clipPath id="clip0_1728_1136">
<rect width="18" height="18" fill="white" transform="translate(0 0.5)"/>
</clipPath>
</defs>
</svg>
