<svg width="18" height="19" viewBox="0 0 18 19" fill="none" xmlns="http://www.w3.org/2000/svg">
<path d="M5.50746 0.708374C3.54039 0.708374 2.61707 2.19371 2.3762 4.16078L0.00769171 17.0471C-0.0324526 17.288 0.0879802 17.5288 0.288702 17.6894C0.409134 17.7697 0.529567 17.8098 0.65 17.8098C0.770433 17.8098 0.890866 17.7697 0.971154 17.7295L1.69375 17.3281C2.01491 17.1274 2.3762 17.0471 2.7375 17.0471C3.13895 17.0471 3.50024 17.1675 3.8214 17.3682L5.10601 18.1711C5.22645 18.2514 5.34688 18.2915 5.46731 18.2915C5.58775 18.2915 5.70818 18.2514 5.82861 18.1711L7.03294 17.3682C7.35409 17.1274 7.75554 17.0471 8.15698 17.0471C8.51828 17.0471 8.83943 17.1274 9.16059 17.3281L9.96347 17.7697C10.0839 17.8098 10.1642 17.8499 10.2846 17.8499C10.4051 17.8499 10.5255 17.8098 10.646 17.7295C10.8467 17.6091 10.9671 17.3281 10.927 17.0872L8.55842 4.20093C8.39785 2.19371 7.47453 0.708374 5.50746 0.708374ZM5.50746 8.77737C4.10241 8.77737 3.74111 7.25189 3.74111 5.32497C3.74111 3.39804 4.10241 1.9127 5.50746 1.9127C6.91251 1.9127 7.27381 3.43818 7.27381 5.32497C7.27381 7.21175 6.91251 8.77737 5.50746 8.77737Z" fill="black"/>
<path d="M15.6235 4.16078C15.3827 2.19371 14.4995 0.708374 12.4923 0.708374C10.7259 0.708374 9.84278 1.87256 9.48145 3.47833C9.52159 3.63891 9.56173 3.83963 9.56173 4.0002L11.9303 16.9267C11.9704 17.2478 11.8901 17.569 11.7697 17.8902L12.1711 18.131C12.2915 18.2113 12.412 18.2514 12.5324 18.2514C12.6529 18.2514 12.7733 18.2113 12.8937 18.131L14.0981 17.3281C14.4192 17.0873 14.8207 17.0069 15.2221 17.0069C15.5834 17.0069 15.9046 17.0873 16.2257 17.288L17.0286 17.7295C17.149 17.7697 17.2293 17.8098 17.3498 17.8098C17.4702 17.8098 17.5906 17.7697 17.7111 17.6894C17.9118 17.569 18.0322 17.288 17.9921 17.0471L15.6235 4.16078ZM12.4923 8.77737C11.0872 8.77737 10.7259 7.25189 10.7259 5.32497C10.7259 3.39804 11.0872 1.9127 12.4923 1.9127C13.8973 1.9127 14.2586 3.43818 14.2586 5.32497C14.2586 7.21175 13.8973 8.77737 12.4923 8.77737Z" fill="black"/>
</svg>
